<?xml version="1.0" standalone="no"?>
<!DOCTYPE svg PUBLIC "-//W3C//DTD SVG 1.1//EN" "http://www.w3.org/Graphics/SVG/1.1/DTD/svg11.dtd" >
<svg xmlns="http://www.w3.org/2000/svg">
<metadata></metadata>
<defs>
<font id="micron55regular" horiz-adv-x="1536" >
<font-face units-per-em="2048" ascent="1638" descent="-410" />
<missing-glyph horiz-adv-x="768" />
<glyph horiz-adv-x="0" />
<glyph unicode="&#xd;" horiz-adv-x="1024" />
<glyph unicode=" "  horiz-adv-x="768" />
<glyph unicode="&#x09;" horiz-adv-x="768" />
<glyph unicode="&#xa0;" horiz-adv-x="768" />
<glyph unicode="!" horiz-adv-x="512" d="M0 0v256h256v-256h-256zM0 512v768h256v-768h-256z" />
<glyph unicode="&#x22;" horiz-adv-x="1024" d="M0 768v512h256v-512h-256zM512 768v512h256v-512h-256z" />
<glyph unicode="#" d="M0 256v256h256v256h-256v256h256v256h256v-256h256v256h256v-256h256v-256h-256v-256h256v-256h-256v-256h-256v256h-256v-256h-256v256h-256zM512 512h256v256h-256v-256z" />
<glyph unicode="$" d="M0 0h512v-256h256v256h512v768h-1024v256h1024v256h-512v264h-256v-264h-512v-768h1024v-256h-1024v-256z" />
<glyph unicode="%" d="M0 0h256v256h256v256h256v256h256v256h256v256h-256v-256h-256v-256h-256v-256h-256v-254l-256 -2v-256zM0 1024v256h256v-256h-256zM1024 0v256h256v-256h-256z" />
<glyph unicode="&#x26;" horiz-adv-x="1792" d="M0 0v768h256v512h1024v-768h256v-256h-256v-256h-1280zM256 256h1010v256h-1010v-256zM512 768h512v256h-512v-256z" />
<glyph unicode="'" horiz-adv-x="512" d="M0 768v512h256v-512h-256z" />
<glyph unicode="(" horiz-adv-x="768" d="M0 256v768h256v-768h256v-256h-256v256h-256zM256 1024v256h256v-256h-256z" />
<glyph unicode=")" horiz-adv-x="768" d="M0 0v256h256v-256h-256zM0 1024v256h256v-256h256v-768h-256v768h-256z" />
<glyph unicode="*" d="M0 512v256h512v256h-256v256h256v-256h256v-256h512v-256h-512v-256h256v-256h-256v256h-256v256h-512zM256 0v256h256v-256h-256zM768 1024v256h256v-256h-256z" />
<glyph unicode="+" horiz-adv-x="1024" d="M0 512h256v-256h256v256h256v256h-256v256h-256v-256h-256v-256z" />
<glyph unicode="," horiz-adv-x="512" d="M0 -256v512h256v-512h-256z" />
<glyph unicode="-" horiz-adv-x="1024" d="M0 512v256h768v-256h-768z" />
<glyph unicode="." horiz-adv-x="512" d="M0 0h256v256h-256v-256z" />
<glyph unicode="/" horiz-adv-x="1024" d="M0 0h256v512h256v256h256v512h-256v-512h-256v-256h-256v-512z" />
<glyph unicode="0" d="M0 0h1280v1280h-1280v-1280zM256 256v768h768v-768h-768z" />
<glyph unicode="1" horiz-adv-x="768" d="M0 1024h256v-1024h256v1280h-512v-256z" />
<glyph unicode="2" d="M0 0h1280v256h-1024v256h1024v768h-1280v-256h1024v-256h-1024v-768z" />
<glyph unicode="3" d="M0 0h1280v1280h-1280v-256h1024v-256h-768v-256h768v-256h-1024v-256z" />
<glyph unicode="4" d="M0 512h1024v-512h256v1280h-256v-512h-768v512h-256v-768z" />
<glyph unicode="5" d="M0 0h1280v768h-1024v256h1024v256h-1280v-768h1024v-256h-1024v-256z" />
<glyph unicode="6" d="M0 0h1280v768h-1024v256h1024v256h-1280v-1280zM256 256v256h768v-256h-768z" />
<glyph unicode="7" horiz-adv-x="1280" d="M0 1024h768v-1024h256v1280h-1024v-256z" />
<glyph unicode="8" d="M0 0h1280v1280h-1280v-1280zM256 256v256h768v-256h-768zM256 768v256h768v-256h-768z" />
<glyph unicode="9" d="M0 0h1280v1280h-1280v-768h1024v-256h-1024v-256zM256 768v256h768v-256h-768z" />
<glyph unicode=":" horiz-adv-x="512" d="M0 256v256h256v-256h-256zM0 768v256h256v-256h-256z" />
<glyph unicode=";" horiz-adv-x="512" d="M0 -256v512h256v-512h-256zM0 768v256h256v-256h-256z" />
<glyph unicode="&#x3c;" horiz-adv-x="1024" d="M0 512v256h256v-256h256v-256h256v-256h-256v256h-256v256h-256zM256 768v256h256v-256h-256zM512 1024v256h256v-256h-256z" />
<glyph unicode="=" horiz-adv-x="1280" d="M0 256v256h1024v-256h-1024zM0 768v256h1024v-256h-1024z" />
<glyph unicode="&#x3e;" horiz-adv-x="1024" d="M0 0v256h256v-256h-256zM0 1024v256h256v-256h256v-256h256v-256h-256v256h-256v256h-256zM256 256v256h256v-256h-256z" />
<glyph unicode="?" d="M0 1024v256h1280v-768h-768v256h512v256h-1024zM512 0v256h256v-256h-256z" />
<glyph unicode="@" d="M0 0h1280v256h-1024v768h256v-512h768v768h-1280v-1280zM768 768v256h256v-256h-256z" />
<glyph unicode="A" d="M0 0h256v512h768v-512h256v1280h-1280v-1280zM256 768v256h768v-256h-768z" />
<glyph unicode="B" d="M0 0h1280v512h-256v256h256v512h-1280v-1280zM256 256v256h768v-256h-768zM256 768v256h768v-256h-768z" />
<glyph unicode="C" d="M0 0h1280v256h-1024v768h1024v256h-1280v-1280z" />
<glyph unicode="D" d="M0 0h1024v256h256v768h-256v256h-1024v-1280zM256 256v768h768v-768h-768z" />
<glyph unicode="E" d="M0 0h1280v256h-1024v256h768v256h-768v256h1024v256h-1280v-1280z" />
<glyph unicode="F" d="M0 0h256v512h768v256h-768v256h1024v256h-1280v-1280z" />
<glyph unicode="G" d="M0 0h1280v768h-741v-256h485v-256h-768v768h1024v256h-1280v-1280z" />
<glyph unicode="H" d="M0 0h256v512h768v-512h256v1280h-256v-512h-768v512h-256v-1280z" />
<glyph unicode="I" horiz-adv-x="512" d="M0 0h256v1280h-256v-1280z" />
<glyph unicode="J" horiz-adv-x="1280" d="M0 0h768v256h-768v-256zM768 256h256v1024h-256v-1024z" />
<glyph unicode="K" d="M0 0h256v512h768v256h-768v512h-256v-1280zM1024 0h256v512h-256v-512zM1024 768h256v512h-256v-512z" />
<glyph unicode="L" horiz-adv-x="1280" d="M0 0h1024v256h-768v1024h-256v-1280z" />
<glyph unicode="M" horiz-adv-x="2048" d="M0 0h256v1024h512v-1024h256v1024h512v-1024h256v1024h-256v256h-1536v-1280z" />
<glyph unicode="N" d="M0 0h256v1024h768v-1024h256v1024h-256v256h-1024v-1280z" />
<glyph unicode="O" d="M0 0h1280v1280h-1280v-1280zM256 256v768h768v-768h-768z" />
<glyph unicode="P" d="M0 0h256v512h1024v768h-1280v-1280zM256 768v256h768v-256h-768z" />
<glyph unicode="Q" d="M0 0h512v-256h256v256h512v1280h-1280v-1280zM256 256v768h768v-768h-768z" />
<glyph unicode="R" d="M0 0h256v512h768v-512h256v512h-256v256h256v512h-1280v-1280zM256 768v256h768v-256h-768z" />
<glyph unicode="S" d="M0 0h1280v768h-1024v256h1024v256h-1280v-768h1024v-256h-1024v-256z" />
<glyph unicode="T" d="M0 1024h512v-1024h256v1024h512v256h-1280v-256z" />
<glyph unicode="U" d="M0 256h256v-256h1024v1280h-256v-1024h-768v1024h-256v-1024z" />
<glyph unicode="V" d="M0 256h256v-256h768v256h-768v1024h-256v-1024zM1024 256h256v1024h-256v-1024z" />
<glyph unicode="W" horiz-adv-x="2048" d="M0 256h256v-256h1280v256h-512v1024h-256v-1024h-512v1024h-256v-1024zM1536 256h256v1024h-256v-1024z" />
<glyph unicode="X" d="M0 0h256v512h-256v-512zM0 768h256v-256h768v-512h256v512h-256v256h-768v512h-256v-512zM1024 768h256v512h-256v-512z" />
<glyph unicode="Y" d="M0 512h512v-512h256v512h512v768h-256v-512h-768v512h-256v-768z" />
<glyph unicode="Z" d="M0 0h1280v256h-1024v256h768v256h256v512h-1280v-256h1024v-256h-768v-256h-256v-512z" />
<glyph unicode="[" horiz-adv-x="768" d="M0 -256v1792h512v-256h-256v-1280h256v-256h-512z" />
<glyph unicode="\" horiz-adv-x="1024" d="M0 768h256v-256h254v-512h258v512h-258v256h-254v512h-256v-512z" />
<glyph unicode="]" horiz-adv-x="768" d="M0 0h256v1280h-256v256h512v-1792h-512v256z" />
<glyph unicode="^" horiz-adv-x="1024" d="M0 768v256h256v-256h-256zM256 1024v256h256v-256h-256zM512 768v256h256v-256h-256z" />
<glyph unicode="_" d="M0 0v256h1280v-256h-1280z" />
<glyph unicode="`" horiz-adv-x="768" d="M0 1024v256h256v-256h-256zM256 768v256h256v-256h-256z" />
<glyph unicode="a" d="M0 0h256v512h768v-512h256v1280h-1280v-1280zM256 768v256h768v-256h-768z" />
<glyph unicode="b" d="M0 0h1280v512h-256v256h256v512h-1280v-1280zM256 256v256h768v-256h-768zM256 768v256h768v-256h-768z" />
<glyph unicode="c" d="M0 0h1280v256h-1024v768h1024v256h-1280v-1280z" />
<glyph unicode="d" d="M0 0h1024v256h256v768h-256v256h-1024v-1280zM256 256v768h768v-768h-768z" />
<glyph unicode="e" d="M0 0h1280v256h-1024v256h768v256h-768v256h1024v256h-1280v-1280z" />
<glyph unicode="f" d="M0 0h256v512h768v256h-768v256h1024v256h-1280v-1280z" />
<glyph unicode="g" d="M0 0h1280v768h-741v-256h485v-256h-768v768h1024v256h-1280v-1280z" />
<glyph unicode="h" d="M0 0h256v512h768v-512h256v1280h-256v-512h-768v512h-256v-1280z" />
<glyph unicode="i" horiz-adv-x="512" d="M0 0h256v1280h-256v-1280z" />
<glyph unicode="j" horiz-adv-x="1280" d="M0 0h768v256h-768v-256zM768 256h256v1024h-256v-1024z" />
<glyph unicode="k" d="M0 0h256v512h768v256h-768v512h-256v-1280zM1024 0h256v512h-256v-512zM1024 768h256v512h-256v-512z" />
<glyph unicode="l" horiz-adv-x="1280" d="M0 0h1024v256h-768v1024h-256v-1280z" />
<glyph unicode="m" horiz-adv-x="2048" d="M0 0h256v1024h512v-1024h256v1024h512v-1024h256v1024h-256v256h-1536v-1280z" />
<glyph unicode="n" d="M0 0h256v1024h768v-1024h256v1024h-256v256h-1024v-1280z" />
<glyph unicode="o" d="M0 0h1280v1280h-1280v-1280zM256 256v768h768v-768h-768z" />
<glyph unicode="p" d="M0 0h256v512h1024v768h-1280v-1280zM256 768v256h768v-256h-768z" />
<glyph unicode="q" d="M0 0h512v-256h256v256h512v1280h-1280v-1280zM256 256v768h768v-768h-768z" />
<glyph unicode="r" d="M0 0h256v512h768v-512h256v512h-256v256h256v512h-1280v-1280zM256 768v256h768v-256h-768z" />
<glyph unicode="s" d="M0 0h1280v768h-1024v256h1024v256h-1280v-768h1024v-256h-1024v-256z" />
<glyph unicode="t" d="M0 1024h512v-1024h256v1024h512v256h-1280v-256z" />
<glyph unicode="u" d="M0 256h256v-256h1024v1280h-256v-1024h-768v1024h-256v-1024z" />
<glyph unicode="v" d="M0 256h256v-256h768v256h-768v1024h-256v-1024zM1024 256h256v1024h-256v-1024z" />
<glyph unicode="w" horiz-adv-x="2048" d="M0 256h256v-256h512v256h256v-256h512v256h256v1024h-256v-1024h-512v1024h-256v-1024h-512v1024h-256v-1024z" />
<glyph unicode="x" d="M0 0h256v512h-256v-512zM0 768h256v-256h768v-512h256v512h-256v256h-768v512h-256v-512zM1024 768h256v512h-256v-512z" />
<glyph unicode="y" d="M0 512h512v-512h256v512h512v768h-256v-512h-768v512h-256v-768z" />
<glyph unicode="z" d="M0 0h1280v256h-1024v256h768v256h256v512h-1280v-256h1024v-256h-768v-256h-256v-512z" />
<glyph unicode="{" horiz-adv-x="1024" d="M0 512v256h256v-256h256v-512h-256v512h-256zM256 768v512h256v-512h-256zM512 0h256v-256h-256v256zM512 1280v256h256v-256h-256z" />
<glyph unicode="|" horiz-adv-x="512" d="M0 -256v1792h256v-1792h-256z" />
<glyph unicode="}" horiz-adv-x="1024" d="M0 0h256v-256h-256v256zM0 1280v256h256v-256h256v-512h256v-256h-256v256h-256v512h-256zM256 0v512h256v-512h-256z" />
<glyph unicode="~" horiz-adv-x="1280" d="M0 512v256h256v-256h-256zM256 768v256h256v-256h256v-256h-256v256h-256zM768 768v256h256v-256h-256z" />
<glyph unicode="&#xa4;" horiz-adv-x="1024" d="M0 512h768v768h-768v-768zM256 768v256h256v-256h-256z" />
<glyph unicode="&#xa7;" horiz-adv-x="1024" d="M0 0h512v-256h-512v-256h768v1280h-512v256h512v256h-768v-1280zM256 256v256h256v-256h-256z" />
<glyph unicode="&#xa9;" d="M0 0h1280v1280h-1280v-1280zM256 256v768h768v-256h-512v-256h512v-256h-768z" />
<glyph unicode="&#xab;" d="M0 512h256v-256h256v256h-256v256h256v256h-256v-256h-256v-256zM768 512h256v-256h256v256h-256v256h256v256h-256v-256h-256v-256z" />
<glyph unicode="&#xad;" horiz-adv-x="1024" d="M0 512v256h768v-256h-768z" />
<glyph unicode="&#xae;" d="M0 0h1280v1280h-1280v-1280zM256 256v768h768v-256h-512v-512h-256z" />
<glyph unicode="&#xb0;" horiz-adv-x="1024" d="M0 512h768v768h-768v-768zM256 768v256h256v-256h-256z" />
<glyph unicode="&#xb1;" horiz-adv-x="1024" d="M0 0h768v256h-256v256h256v256h-256v256h-256v-256h-256v-256h256v-256h-256v-256z" />
<glyph unicode="&#xb6;" d="M0 512v768h1280v-1280h-256v1024h-256v-1024h-256v512h-512zM0 512v768v-768zM256 768h256v256h-256v-256z" />
<glyph unicode="&#xb7;" horiz-adv-x="512" d="M0 512h256v256h-256v-256z" />
<glyph unicode="&#xbb;" d="M0 256h256v256h256v256h-256v256h-256v-256h256v-256h-256v-256zM768 256h256v256h256v256h-256v256h-256v-256h256v-256h-256v-256z" />
<glyph unicode="&#x2000;" horiz-adv-x="772" />
<glyph unicode="&#x2001;" horiz-adv-x="1544" />
<glyph unicode="&#x2002;" horiz-adv-x="772" />
<glyph unicode="&#x2003;" horiz-adv-x="1544" />
<glyph unicode="&#x2004;" horiz-adv-x="514" />
<glyph unicode="&#x2005;" horiz-adv-x="386" />
<glyph unicode="&#x2006;" horiz-adv-x="257" />
<glyph unicode="&#x2007;" horiz-adv-x="257" />
<glyph unicode="&#x2008;" horiz-adv-x="193" />
<glyph unicode="&#x2009;" horiz-adv-x="308" />
<glyph unicode="&#x200a;" horiz-adv-x="85" />
<glyph unicode="&#x2010;" horiz-adv-x="1024" d="M0 512v256h768v-256h-768z" />
<glyph unicode="&#x2011;" horiz-adv-x="1024" d="M0 512v256h768v-256h-768z" />
<glyph unicode="&#x2012;" horiz-adv-x="1024" d="M0 512v256h768v-256h-768z" />
<glyph unicode="&#x2013;" horiz-adv-x="1024" d="M0 512h768v256h-768v-256z" />
<glyph unicode="&#x2014;" horiz-adv-x="1280" d="M0 512h1024v256h-1024v-256z" />
<glyph unicode="&#x2018;" horiz-adv-x="768" d="M0 768h256v512h-256v-512z" />
<glyph unicode="&#x2019;" horiz-adv-x="768" d="M0 768h256v512h-256v-512z" />
<glyph unicode="&#x201a;" horiz-adv-x="512" d="M0 -256h256v512h-256v-512z" />
<glyph unicode="&#x201c;" horiz-adv-x="1280" d="M0 768h256v512h-256v-512zM512 768h256v512h-256v-512z" />
<glyph unicode="&#x201d;" horiz-adv-x="1280" d="M0 768h256v512h-256v-512zM512 768h256v512h-256v-512z" />
<glyph unicode="&#x201e;" horiz-adv-x="1024" d="M0 -256h256v512h-256v-512zM512 -256h256v512h-256v-512z" />
<glyph unicode="&#x2022;" horiz-adv-x="512" d="M0 512h256v256h-256v-256z" />
<glyph unicode="&#x2026;" d="M0 0h256v256h-256v-256zM512 0h256v256h-256v-256zM1024 0h256v256h-256v-256z" />
<glyph unicode="&#x202f;" horiz-adv-x="308" />
<glyph unicode="&#x2039;" horiz-adv-x="768" d="M0 512h256v-256h256v256h-256v256h256v256h-256v-256h-256v-256z" />
<glyph unicode="&#x203a;" horiz-adv-x="768" d="M0 256h256v256h256v256h-256v256h-256v-256h256v-256h-256v-256z" />
<glyph unicode="&#x205f;" horiz-adv-x="386" />
<glyph unicode="&#x2122;" horiz-adv-x="1792" d="M0 1024h256v-256h256v256h256v-256h256v256h256v-256h256v512h-1536v-256z" />
<glyph unicode="&#x25fc;" horiz-adv-x="1280" d="M0 0v1280h1280v-1280h-1280z" />
</font>
</defs>
</svg>
